<svg preserveAspectRatio="none" width="100%" height="100%" overflow="visible" style="display: block;" viewBox="0 0 24 24" fill="none" xmlns="http://www.w3.org/2000/svg">
<g id="ico-/-24-/-arrows-/-chevron_left">
<path id="Icon-color" d="M8.22 12.72C8.07931 12.5795 8.00018 12.3888 8 12.19V11.81C8.0023 11.6116 8.08112 11.4217 8.22 11.28L13.36 6.15C13.4539 6.05534 13.5817 6.0021 13.715 6.0021C13.8483 6.0021 13.9761 6.05534 14.07 6.15L14.78 6.86C14.8741 6.95216 14.9271 7.07831 14.9271 7.21C14.9271 7.34169 14.8741 7.46784 14.78 7.56L10.33 12L14.78 16.44C14.8747 16.5339 14.9279 16.6617 14.9279 16.795C14.9279 16.9283 14.8747 17.0561 14.78 17.15L14.07 17.85C13.9761 17.9447 13.8483 17.9979 13.715 17.9979C13.5817 17.9979 13.4539 17.9447 13.36 17.85L8.22 12.72Z" fill="var(--fill-0, #191919)"/>
<g id="bounding_box:c2all">
</g>
</g>
</svg>
