<?xml version='1.0' encoding='UTF-8'?>
<svg xmlns:ns0="http://www.w3.org/2000/svg" xmlns="http://www.w3.org/2000/svg" viewBox="0 0 24 24" fill="none"><ns0:path fill="var(--color-content-primary, currentcolor)" d="m5.828 2.36 10.034 6.394 1.026 5.975-1.225.21-.932-5.432L8.16 5.319l2.685 4.912-1.09.596-2.667-4.878.038 7.463 4.072 3.992-.87.887-4.442-4.355z" /><ns0:path fill="var(--color-content-primary, currentcolor)" d="m17.953 17.11.596 1.09-5.99 3.274-.596-1.09zm.044-.15-.92-1.682a.11.11 0 0 0-.149-.043l-5.99 3.275a.11.11 0 0 0-.044.148l.92 1.683a.11.11 0 0 0 .149.044l.595 1.09a1.35 1.35 0 0 1-1.835-.538l-.92-1.682a1.35 1.35 0 0 1 .538-1.835l5.99-3.276a1.35 1.35 0 0 1 1.836.538l.92 1.682.032.062c.31.644.065 1.426-.57 1.773l-.596-1.09a.11.11 0 0 0 .044-.149" /><ns0:path fill="var(--color-content-primary-accent, currentcolor)" fill-rule="evenodd" clip-rule="evenodd" d="M9.994 9.548a2.527 2.527 0 0 1 3.315 1.064l.06.116a2.53 2.53 0 0 1-1.065 3.315l-.116.059a2.527 2.527 0 0 1-3.249-.952l-.065-.113a2.527 2.527 0 0 1 1.005-3.43zm.533 1.246a1.175 1.175 0 1 0 1.128 2.062 1.175 1.175 0 0 0-1.128-2.062" /></svg>