<svg preserveAspectRatio="none" width="100%" height="100%" overflow="visible" style="display: block;" viewBox="0 0 16.4776 17.6546" fill="none" xmlns="http://www.w3.org/2000/svg">
<g id="AI-Icon">
<path d="M8.84717 10.4943C9.13604 10.4293 9.36165 10.2002 9.42568 9.90686L10.101 6.82202C10.2778 6.01405 11.412 6.01405 11.5888 6.82202L12.2641 9.90686C12.3282 10.2002 12.5538 10.4293 12.8426 10.4943L15.8808 11.18C16.6765 11.3595 16.6765 12.5111 15.8808 12.6906L12.8426 13.3763C12.5538 13.4413 12.3282 13.6704 12.2641 13.9637L11.5888 17.0486C11.412 17.8566 10.2778 17.8566 10.101 17.0486L9.42568 13.9637C9.36165 13.6704 9.13604 13.4413 8.84717 13.3763L5.80902 12.6906C5.01328 12.5111 5.01328 11.3595 5.80902 11.18L8.84717 10.4943Z" fill="var(--fill-0, #191919)"/>
<path d="M1.99061 3.01191C2.47782 2.90227 2.85833 2.51591 2.96632 2.02121L3.31469 0.428781C3.43939 -0.142927 4.24155 -0.142927 4.36624 0.428781L4.71462 2.02121C4.8226 2.51591 5.20311 2.90227 5.69032 3.01191L7.25864 3.36564C7.8217 3.49225 7.8217 4.30674 7.25864 4.43335L5.69032 4.78708C5.20311 4.89672 4.8226 5.28308 4.71462 5.77778L4.36624 7.37021C4.24155 7.94192 3.43939 7.94192 3.31469 7.37021L2.96632 5.77778C2.85833 5.28308 2.47782 4.89672 1.99061 4.78708L0.422291 4.43335C-0.140764 4.30674 -0.140764 3.49225 0.422291 3.36564L1.99061 3.01191Z" fill="#191919"/>
</g>
</svg>
