<svg preserveAspectRatio="xMidYMid meet" width="100%" height="100%" overflow="visible" style="display: block;" viewBox="0 0 197.888 150.567" fill="none" xmlns="http://www.w3.org/2000/svg">
<g id="Group 43960">
<path id="Rectangle 10899 (Stroke)" d="M167.598 137.661V150.567H30.29V137.661H167.598ZM184.982 120.277V25.8114H12.9059V120.277C12.9059 129.877 20.6895 137.661 30.29 137.661V150.567L28.7314 150.529C12.7272 149.718 0.000205994 136.483 0.000205994 120.277V12.9057H197.888V120.277C197.888 137.005 184.326 150.567 167.598 150.567V137.661C177.199 137.661 184.982 129.877 184.982 120.277Z" fill="var(--fill-0, #CCCCCC)"/>
<path id="Polygon 2 (Stroke)" d="M69.4126 118.903L69.4126 35.8351L141.348 77.3712L69.4126 118.903ZM82.3183 58.189L82.3183 96.5491L115.536 77.367L82.3183 58.189Z" fill="var(--fill-0, #87E64B)"/>
<path id="Rectangle 10921" d="M0.000205994 0H4.30211V30.1134H0.000205994V0Z" fill="var(--fill-0, #CCCCCC)"/>
</g>
</svg>
