<svg preserveAspectRatio="none" width="100%" height="100%" overflow="visible" style="display: block;" viewBox="0 0 166.289 35.7236" fill="none" xmlns="http://www.w3.org/2000/svg">
<g id="Group">
<path id="Vector" d="M14.8329 6.80412C21.9569 6.80412 28.9194 11.0039 28.9194 20.3596C28.9194 21.1023 28.8786 22.2534 28.7969 23.0629C28.7783 23.2486 28.6205 23.3897 28.433 23.3897H8.45155C9.0364 26.7392 11.3758 28.9189 15.0427 28.9189C17.4749 28.9189 19.0271 27.5746 19.8719 25.9668C19.9777 25.7644 20.208 25.6586 20.4308 25.7068L27.902 27.3351C28.1304 27.3853 28.251 27.6303 28.1582 27.8439C26.4111 31.8004 22.4378 35.7217 14.9907 35.7217C5.20981 35.7217 0 29.3422 0 21.262C0 13.1818 5.42147 6.80226 14.8311 6.80226L14.8329 6.80412ZM20.5737 18.2876C20.2024 15.0978 18.0746 13.3971 14.9926 13.3971C10.9525 13.3971 9.25177 15.471 8.61308 18.2876H20.5737Z" fill="var(--fill-0, #FFF5ED)"/>
<path id="Vector_2" d="M31.4727 34.5069V8.02153C31.4727 7.81916 31.6361 7.65577 31.8385 7.65577H39.6124C39.8147 7.65577 39.9781 7.81916 39.9781 8.02153V11.1649C41.8385 8.24062 44.6031 6.80542 48.1642 6.80542C53.374 6.80542 57.8392 10.3665 57.8392 18.3409V34.5069C57.8392 34.7093 57.6759 34.8726 57.4735 34.8726H49.6996C49.4972 34.8726 49.3339 34.7093 49.3339 34.5069V19.5626C49.3339 16.0015 47.4735 14.0334 44.7627 14.0334C41.8385 14.0334 39.9781 15.9476 39.9781 20.3071V34.5069C39.9781 34.7093 39.8147 34.8726 39.6124 34.8726H31.8385C31.6361 34.8726 31.4727 34.7093 31.4727 34.5069Z" fill="var(--fill-0, #FFF5ED)"/>
<path id="Vector_3" d="M58.3614 7.65479H66.6068C66.7684 7.65479 66.9095 7.76061 66.9577 7.91472L73.1516 28.4402L79.3454 7.91472C79.3918 7.76061 79.5348 7.65479 79.6963 7.65479H87.9418C88.1943 7.65479 88.3725 7.90544 88.2853 8.14495L78.8014 34.5337C78.729 34.7361 78.5359 34.8735 78.3187 34.8735H67.9826C67.7672 34.8735 67.5741 34.738 67.4999 34.5337L58.016 8.14495C57.9306 7.90729 58.107 7.65479 58.3595 7.65479H58.3614Z" fill="var(--fill-0, #FFF5ED)"/>
<path id="Vector_4" d="M106.322 34.5066V30.3533C104.992 33.1179 102.016 35.7228 97.391 35.7228C92.0215 35.7228 88.0353 32.3213 88.0353 27.5367C88.0353 22.4866 91.3847 18.712 98.7204 18.712H102.974C105.313 18.712 105.95 17.0113 105.739 15.8954C105.419 13.9812 103.719 12.9712 101.327 12.9712C98.3063 12.9712 96.4775 14.6403 96.2473 16.9389C96.2269 17.1487 96.0338 17.2991 95.8258 17.2638L88.6145 16.0625C88.414 16.0291 88.2766 15.8379 88.3138 15.6392C89.489 9.36552 95.4378 6.80518 101.543 6.80518C107.647 6.80518 114.407 8.29422 114.407 19.5642V34.5085C114.407 34.7109 114.244 34.8743 114.042 34.8743H106.693C106.491 34.8743 106.327 34.7109 106.327 34.5085L106.322 34.5066ZM99.8901 29.5568C103.291 29.5568 105.631 27.0057 105.896 23.816H100.74C97.6045 23.816 96.4868 25.0915 96.5407 26.846C96.5945 28.7064 98.0817 29.5568 99.8901 29.5568Z" fill="var(--fill-0, #FFF5ED)"/>
<path id="Vector_5" d="M115.68 14.094V8.0208C115.68 7.81842 115.843 7.65504 116.046 7.65504H119.081C120.49 7.65504 121.632 6.51318 121.632 5.10397V0.365764C121.632 0.163387 121.796 0 121.998 0H128.922C129.124 0 129.287 0.163387 129.287 0.365764V7.65504H134.876C135.078 7.65504 135.242 7.81842 135.242 8.0208V14.094C135.242 14.2963 135.078 14.4597 134.876 14.4597H129.287V24.2945C129.287 27.4991 132.011 28.8043 134.855 27.7943C135.045 27.7275 135.242 27.8704 135.242 28.0691V34.4764C135.242 34.7122 135.082 34.9202 134.854 34.974C134.118 35.1486 133.099 35.2989 131.894 35.2989C125.303 35.2989 120.784 33.0654 120.784 23.498V14.4616H116.046C115.843 14.4616 115.68 14.2982 115.68 14.0958V14.094Z" fill="var(--fill-0, #FFF5ED)"/>
<path id="Vector_6" d="M166.289 21.2639C166.289 29.2383 160.654 35.7236 151.405 35.7236C142.155 35.7236 136.52 29.2383 136.52 21.2639C136.52 13.2895 142.155 6.8042 151.405 6.8042C160.654 6.8042 166.289 13.2895 166.289 21.2639ZM157.784 21.2639C157.784 17.3296 155.604 14.0341 151.405 14.0341C147.205 14.0341 145.025 17.3296 145.025 21.2639C145.025 25.1982 147.205 28.4938 151.405 28.4938C155.604 28.4938 157.784 25.1982 157.784 21.2639Z" fill="var(--fill-0, #FFF5ED)"/>
</g>
</svg>
