<svg preserveAspectRatio="none" width="100%" height="100%" overflow="visible" style="display: block;" viewBox="0 0 33.5869 47.5325" fill="none" xmlns="http://www.w3.org/2000/svg">
<g id="Group">
<path id="Vector" d="M18.9813 47.5325C20.1554 47.5325 21.1072 46.5807 21.1072 45.4066C21.1072 44.2326 20.1554 43.2808 18.9813 43.2808C17.8073 43.2808 16.8555 44.2326 16.8555 45.4066C16.8555 46.5807 17.8073 47.5325 18.9813 47.5325Z" fill="var(--fill-0, #87E64B)"/>
<path id="Vector_2" d="M31.1921 30.9288L19.2148 32.2117C18.9957 32.2359 18.8824 31.9555 19.057 31.82L30.7781 22.6945C31.5393 22.0725 32.0239 21.1033 31.816 20.0654C31.608 18.4743 30.2935 17.4364 28.6337 17.6443L15.8988 19.5084C15.6741 19.5418 15.5534 19.2541 15.7335 19.1167L28.357 9.47871C30.8487 7.54221 31.0548 3.73604 28.7729 1.52289C26.6972 -0.552861 23.3756 -0.484163 21.2998 1.59159L0.958187 22.2786C0.196954 23.1085 -0.148386 24.2151 0.0595612 25.3922C0.404901 27.26 2.27271 28.5058 4.14237 28.1605L15.1078 25.9232C15.3455 25.8749 15.4755 26.1924 15.2694 26.3224L3.10264 34.1092C1.58017 35.0784 0.889493 36.807 1.37223 38.5374C1.85682 40.8211 4.14052 42.1356 6.35366 41.5823L24.5397 37.1022C24.7439 37.0521 24.8943 37.2897 24.7625 37.4531L21.9218 40.9585C21.1606 41.9277 22.4064 43.2422 23.4443 42.481L32.7852 34.8018C34.445 33.4186 33.3385 30.719 31.194 30.9269L31.1921 30.9288Z" fill="var(--fill-0, #87E64B)"/>
</g>
</svg>
