<svg preserveAspectRatio="none" width="100%" height="100%" overflow="visible" style="display: block;" viewBox="0 0 13.3333 12.7225" fill="none" xmlns="http://www.w3.org/2000/svg">
<g id="ico-/-24-/-GenAI-/-ImageEdit">
<path id="Vector 322 (Stroke)" d="M1.95473 2.36838C2.05294 1.64817 2.71644 1.14384 3.43664 1.24205L10.1581 2.15866C10.6622 2.22743 11.0815 2.58061 11.235 3.06564C11.3885 3.55075 11.2486 4.08095 10.8758 4.42717L5.68521 9.24672L11.7686 8.07713C12.4823 7.9399 13.1721 8.40722 13.3094 9.12098C13.4467 9.83478 12.9793 10.5248 12.2656 10.662L1.67411 12.6988C1.09753 12.8096 0.517251 12.5252 0.251751 12.0015C-0.0137476 11.4778 0.0997283 10.8414 0.530011 10.4418L7.04631 4.39097L3.08083 3.8503C2.36069 3.75205 1.85654 3.08854 1.95473 2.36838Z" fill="var(--fill-0, #666666)"/>
<path id="Ellipse 215" d="M4.68467 2.34235C4.68467 3.63599 3.63597 4.68469 2.34234 4.68469C1.0487 4.68469 0 3.63599 0 2.34235C0 1.0487 1.0487 0 2.34234 0C3.63597 0 4.68467 1.0487 4.68467 2.34235Z" fill="var(--fill-0, #666666)"/>
<path id="Ellipse 215 (Stroke)" d="M3.86994 2.34241C3.86994 1.49875 3.18605 0.814681 2.3424 0.814648C1.49872 0.814648 0.814644 1.49873 0.814644 2.34241C0.814677 3.18606 1.49874 3.86995 2.3424 3.86995V4.6846L2.2218 4.6816C1.02407 4.62089 0.0636659 3.66054 0.00299895 2.4628L0 2.34241C0 1.04877 1.04876 0 2.3424 0L2.46278 0.00299897C3.70045 0.0656885 4.68458 1.08916 4.68458 2.34241L4.68158 2.4628C4.61889 3.70044 3.59561 4.68457 2.3424 4.6846V3.86995C3.18603 3.86992 3.8699 3.18604 3.86994 2.34241Z" fill="var(--fill-0, #666666)"/>
</g>
</svg>
