<svg preserveAspectRatio="xMidYMid meet" width="100%" height="100%" overflow="visible" style="display: block;" viewBox="0 0 156.45 118.455" fill="none" xmlns="http://www.w3.org/2000/svg">
<g id="ico-/-24-/-GenAI-/-SoundGen">
<path id="Vector" d="M156.45 62.4771H0.000215899V71.5825H156.45V62.4771Z" fill="var(--fill-0, #69E924)"/>
<path id="Vector_2" d="M78.2321 118.455C66.6713 118.455 62.8972 99.5995 58.1129 75.7433C56.2189 66.2876 54.2546 56.4958 51.8976 49.4355C49.0916 41.0165 46.959 40.3441 46.9309 40.3441C43.6198 40.3441 42.2168 42.7816 39.3687 50.5982C36.1558 59.4515 31.7504 71.5828 15.6298 71.5828H0.000215899V62.4773H15.6438C24.8896 62.4773 27.4291 56.7899 30.7963 47.5024C33.4199 40.2601 36.703 31.2387 46.9309 31.2387C58.4917 31.2387 62.2658 50.0939 67.0501 73.9502C68.9442 83.4059 70.9084 93.1977 73.2654 100.258C75.5804 107.192 77.4324 108.873 78.0357 109.251C82.6796 105.357 86.8466 76.1775 89.372 58.583C94.8578 20.088 98.2671 0 109.519 0C120.771 0 123.03 14.6948 125.85 30.2581C128.586 45.3591 131.701 62.4773 140.806 62.4773H156.45V71.5828H140.806C124.082 71.5828 120.252 50.4862 116.871 31.8831C115.468 24.1504 112.886 9.95995 109.8 9.13346C105.128 12.7476 100.919 42.1792 98.3934 59.8578C92.8795 98.3528 89.4842 118.441 78.2321 118.441V118.455Z" fill="var(--fill-0, #8C8C8C)"/>
<path id="Vector_3" d="M112.072 71.5825H78.2173C75.7059 71.5825 73.6575 69.5373 73.6575 67.0298C73.6575 64.5223 75.7059 62.4771 78.2173 62.4771H112.072C114.583 62.4771 116.632 64.5223 116.632 67.0298C116.632 69.5373 114.583 71.5825 112.072 71.5825Z" fill="var(--fill-0, #69E924)"/>
<path id="Vector_4" d="M41.852 62.4771H0.000215899V71.5825H41.852V62.4771Z" fill="var(--fill-0, #69E924)"/>
</g>
</svg>
