<svg preserveAspectRatio="xMidYMid meet" width="100%" height="100%" overflow="visible" style="display: block;" viewBox="0 0 156.45 149.283" fill="none" xmlns="http://www.w3.org/2000/svg">
<g id="ico-/-24-/-GenAI-/-ImageEdit">
<path id="Vector 322 (Stroke)" d="M22.9363 27.79C24.0886 19.3393 31.8739 13.4216 40.3246 14.574L119.193 25.3293C125.108 26.1362 130.027 30.2802 131.828 35.9715C133.629 41.6636 131.988 47.8848 127.613 51.9473L66.7087 108.499L138.089 94.7749C146.465 93.1648 154.558 98.6482 156.169 107.023C157.78 115.399 152.296 123.495 143.921 125.105L19.6436 149.004C12.8781 150.305 6.06928 146.967 2.95398 140.822C-0.161309 134.677 1.17019 127.21 6.21901 122.522L82.6795 51.5225L36.1497 45.1784C27.6997 44.0256 21.7841 36.2402 22.9363 27.79Z" fill="var(--fill-0, #666666)"/>
<path id="Ellipse 215" d="M54.9687 27.4846C54.9687 42.6638 42.6635 54.969 27.4843 54.969C12.3052 54.969 0 42.6638 0 27.4846C0 12.3053 12.3052 9.0418e-05 27.4843 9.0418e-05C42.6635 9.0418e-05 54.9687 12.3053 54.9687 27.4846Z" fill="var(--fill-0, #191919)"/>
<path id="Ellipse 215 (Stroke)" d="M45.4088 27.4853C45.4088 17.586 37.3842 9.55934 27.4851 9.55895C17.5856 9.55895 9.55882 17.5858 9.55882 27.4853C9.5592 37.3845 17.5858 45.4091 27.4851 45.4091V54.9679L26.07 54.9328C12.0162 54.2203 0.747039 42.9519 0.0351889 28.8979L0 27.4853C0 12.306 12.3059 9.0418e-05 27.4851 9.0418e-05L28.8976 0.0352795C43.42 0.770862 54.9676 12.78 54.9676 27.4853L54.9324 28.8979C54.1968 43.4201 42.1899 54.9676 27.4851 54.9679V45.4091C37.384 45.4087 45.4084 37.3842 45.4088 27.4853Z" fill="var(--fill-0, #87E64B)"/>
</g>
</svg>
