<svg preserveAspectRatio="xMidYMid meet" width="100%" height="100%" overflow="visible" style="display: block;" viewBox="0 0 156.45 135.092" fill="none" xmlns="http://www.w3.org/2000/svg">
<g id="ico-/-24-/-GenAI-/-ImageGen">
<path id="Ellipse 214 (Stroke)" d="M54.4196 23.808C54.4196 16.2946 48.3281 10.2033 40.8148 10.2031C33.3013 10.2031 27.2099 16.2945 27.2099 23.808C27.2101 31.3213 33.3014 37.4128 40.8148 37.4128V47.6159L39.5901 47.5849C27.4163 46.9682 17.6549 37.2064 17.0379 25.0326L17.0069 23.808C17.0069 10.6594 27.6662 9.7332e-05 40.8148 9.7332e-05L42.0394 0.0311314C54.6187 0.668689 64.6226 11.0703 64.6226 23.808L64.5916 25.0326C63.9541 37.6118 53.5524 47.6157 40.8148 47.6159V37.4128C48.328 37.4127 54.4194 31.3212 54.4196 23.808Z" fill="var(--fill-0, #87E64B)"/>
<path id="Subtract (Stroke)" d="M133.544 124.889V135.092H22.9057V124.889H133.544ZM146.247 112.189V72.9766L123.79 51.5774L67.6091 106.386L41.1896 80.611L10.2033 109.625V112.189L10.22 112.843C10.561 119.553 16.1097 124.889 22.9057 124.889V135.092C10.2559 135.092 0.000846181 124.839 0.000230092 112.189V105.202L41.3352 66.5L67.6091 92.1318L123.707 37.4068L156.45 68.608V112.189C156.449 124.839 146.194 135.092 133.544 135.092V124.889C140.34 124.889 145.889 119.553 146.23 112.843L146.247 112.189Z" fill="var(--fill-0, #666666)"/>
</g>
</svg>
