<svg preserveAspectRatio="none" width="100%" height="100%" overflow="visible" style="display: block;" viewBox="0 0 108.405 156.45" fill="none" xmlns="http://www.w3.org/2000/svg">
<g id="ico-/-24-/-GenAI-/-VoiceGen">
<path id="Vector" d="M54.8184 108.405C38.1585 108.405 24.6374 94.9148 24.6374 78.2927V30.1126C24.6374 13.4905 38.1585 5.56082e-05 54.8184 5.56082e-05C71.4783 5.56082e-05 84.9993 13.4905 84.9993 30.1126V78.2927C84.9993 94.9148 71.4783 108.405 54.8184 108.405ZM72.9269 30.1126C72.9269 20.1554 64.7982 12.0451 54.8184 12.0451C44.8385 12.0451 36.7098 20.1554 36.7098 30.1126V78.2927C36.7098 88.2499 44.8385 96.3602 54.8184 96.3602C64.7982 96.3602 72.9269 88.2499 72.9269 78.2927V30.1126Z" fill="var(--fill-0, #87E64B)"/>
<path id="Vector_2" d="M12.0452 70.2184V78.2399C12.0452 101.502 30.996 120.353 54.2028 120.353C77.4095 120.353 96.3604 101.502 96.3604 78.2399V70.2184H108.405V78.2399C108.405 106.075 87.2864 129.016 60.2253 132.064V144.418H78.2928V156.45H38.1428H30.1128V144.418H38.1428H48.1803V132.064C21.1191 129.096 0.000197212 106.075 0.000197212 78.2399V70.2184H12.0452Z" fill="var(--fill-0, #666666)"/>
</g>
</svg>
