<svg preserveAspectRatio="none" width="100%" height="100%" overflow="visible" style="display: block;" viewBox="0 0 13.3335 11.5132" fill="none" xmlns="http://www.w3.org/2000/svg">
<g id="ico-/-24-/-GenAI-/-ImageGen">
<path id="Ellipse 214 (Stroke)" d="M4.63786 2.02902C4.63786 1.3887 4.11871 0.869573 3.47839 0.869558C2.83806 0.869558 2.31893 1.38869 2.31893 2.02902C2.31894 2.66934 2.83807 3.18849 3.47839 3.18849V4.05804L3.37402 4.05539C2.33651 4.00284 1.50461 3.1709 1.45203 2.13339L1.44938 2.02902C1.44938 0.908445 2.35782 1.0252e-05 3.47839 1.0252e-05L3.58276 0.00265511C4.65483 0.0569906 5.50741 0.943458 5.50741 2.02902L5.50476 2.13339C5.45043 3.20545 4.56395 4.05802 3.47839 4.05804V3.18849C4.1187 3.18847 4.63784 2.66933 4.63786 2.02902Z" fill="var(--fill-0, #666666)"/>
<path id="Subtract (Stroke)" d="M11.3812 10.6436V11.5132H1.95211V10.6436H11.3812ZM12.4638 9.56127V6.21939L10.5499 4.39566L5.76192 9.06668L3.51034 6.87002L0.869548 9.34276V9.56127L0.870972 9.61701C0.900033 10.1889 1.37292 10.6436 1.95211 10.6436V11.5132C0.874033 11.5132 5.25058e-05 10.6393 0 9.56127V8.96577L3.52275 5.66743L5.76192 7.85188L10.5428 3.18797L13.3333 5.84707V9.56127C13.3333 10.6393 12.4593 11.5132 11.3812 11.5132V10.6436C11.9604 10.6436 12.4333 10.1889 12.4624 9.61701L12.4638 9.56127Z" fill="var(--fill-0, #666666)"/>
</g>
</svg>
