<svg preserveAspectRatio="none" width="100%" height="100%" overflow="visible" style="display: block;" viewBox="0 0 12.7776 9.72229" fill="none" xmlns="http://www.w3.org/2000/svg">
<g id="Main Content">
<path id="Background (Stroke)" d="M10.8548 8.84798V9.72229H1.92279V8.84798H10.8548ZM11.9032 7.7995V1.70775H0.874306V7.7995C0.874352 8.37852 1.34376 8.84798 1.92279 8.84798V9.72229L1.82375 9.71973C0.840611 9.66985 0.0523837 8.88148 0.00256144 7.89833L0 7.7995V0.833445H12.7775V7.7995L12.775 7.89833C12.7252 8.88149 11.9369 9.66987 10.9538 9.71973L10.8548 9.72229V8.84798C11.4338 8.84798 11.9032 8.37852 11.9032 7.7995Z" fill="var(--fill-0, #666666)"/>
<path id="Polygon 2 (Stroke)" d="M4.48183 7.67767L4.48183 2.31423L9.12679 4.99584L4.48183 7.67767ZM5.35613 3.82847L5.35613 6.16343L7.37839 4.99584L5.35613 3.82847Z" fill="var(--fill-0, #666666)"/>
<path id="Divider" d="M8.13007e-05 1.00136e-05H0.277855V1.94442H8.13007e-05V1.00136e-05Z" fill="var(--fill-0, #666666)"/>
</g>
</svg>
