<?xml version='1.0' encoding='UTF-8'?>
<svg xmlns:ns0="http://www.w3.org/2000/svg" xmlns="http://www.w3.org/2000/svg" viewBox="0 0 24 24" fill="none"><ns0:path fill="var(--color-content-primary, currentcolor)" fill-rule="evenodd" clip-rule="evenodd" d="M8.554 18.738c0-.718-.847-1.782-2.537-1.782-1.691 0-2.537 1.06-2.537 1.782 0 .718.847 1.781 2.537 1.781 1.691 0 2.537-1.06 2.537-1.781m1.48 0c0 1.795-1.79 3.262-4.017 3.262S2 20.527 2 18.738c0-1.795 1.79-3.262 4.017-3.262s4.017 1.473 4.017 3.262m9.91-1.91c0-.718-.847-1.782-2.537-1.782s-2.537 1.06-2.537 1.782c0 .718.847 1.781 2.537 1.781 1.691 0 2.537-1.06 2.537-1.781m1.48 0c0 1.795-1.79 3.262-4.017 3.262s-4.017-1.473-4.017-3.262c0-1.795 1.79-3.262 4.017-3.262 2.229 0 4.017 1.473 4.017 3.262" /><ns0:path fill="var(--color-content-primary-accent, currentcolor)" d="M20.431 7.608 9.426 10.312l-.353-1.438L20.078 6.17z" /><ns0:path fill="var(--color-content-primary, currentcolor)" d="M21.424 16.942h-1.48V3.762l-9.91 1.74v13.187h-1.48V4.259L21.424 2z" /></svg>